<svg xmlns="http://www.w3.org/2000/svg" width="249.91" height="249.91" viewBox="0 0 249.91 249.91"><path d="M128,3.05A125,125,0,1,0,253,128,124.95,124.95,0,0,0,128,3.05ZM99.09,182.74A12.34,12.34,0,1,1,86.76,170.4a3.77,3.77,0,0,1,.47,0c12.16.48,16.69-4.57,17.23-15-.52-10-4.69-15.09-15.69-15.09-.5,0-1,0-1.54,0a3.77,3.77,0,0,1-.47,0,12.34,12.34,0,0,1,0-24.68,3.77,3.77,0,0,1,.47,0v0c12.16.5,16.69-4.57,17.23-15-.52-10-4.69-15.09-15.69-15.09-.5,0-1,0-1.54,0l-.47,0a12.34,12.34,0,1,1,8.72-21.06,12.16,12.16,0,0,1,3.61,8.7c0,6.17,1.34,10.32,4,12.94s6.72,3.67,12.11,3.67a10.77,10.77,0,1,1,0,21.54c-10.78,0-16.15,4.27-16.15,16.61s5.35,16.59,16.07,16.59h.08a10.78,10.78,0,1,1,0,21.56c-5.39,0-9.42,1.06-12.11,3.67S99.09,176.57,99.09,182.74ZM74.42,155.37a12.34,12.34,0,1,1,12.34,12.34A12.33,12.33,0,0,1,74.42,155.37Zm0-54.74A12.34,12.34,0,1,1,86.76,113,12.32,12.32,0,0,1,74.42,100.63ZM126,128a10.77,10.77,0,1,1-10.78-10.78A10.78,10.78,0,0,1,126,128Zm16.59,63.66a8.92,8.92,0,1,1,8.95-8.92A8.92,8.92,0,0,1,142.61,191.66Zm6.39-30a9,9,0,0,1-6.17,2.67A17.3,17.3,0,0,0,126,182.48h0c0,.08,0,.18,0,.26A10.77,10.77,0,1,1,115.24,172l.26,0h0a17.3,17.3,0,0,0,18.17-16.83l0,0A8.93,8.93,0,1,1,149,161.62Zm-6.39-52.07a8.91,8.91,0,0,1-8.9-8.72h0c-.2-8.92-7.41-17-18.17-16.81h-.28A10.77,10.77,0,1,1,126,73.26c0,.08,0,.16,0,.26l0,0a17.31,17.31,0,0,0,16.81,18.21,8.92,8.92,0,0,1-.22,17.84Zm0-27.37a8.93,8.93,0,1,1,8.95-8.92A8.92,8.92,0,0,1,142.61,82.18Zm26.81,107.67a7.1,7.1,0,1,1,7.11-7.11A7.09,7.09,0,0,1,169.42,189.85Zm0-27.37a7.1,7.1,0,1,1,7.11-7.11A7.11,7.11,0,0,1,169.42,162.48Zm0-27.39a7.1,7.1,0,1,1,7.11-7.09A7.09,7.09,0,0,1,169.42,135.09Zm0-27.37a7.1,7.1,0,1,1,7.11-7.09A7.09,7.09,0,0,1,169.42,107.72Zm0-27.37a7.1,7.1,0,1,1,7.11-7.09A7.09,7.09,0,0,1,169.42,80.35Zm25.7,80.55a5.53,5.53,0,1,1,5.53-5.53A5.53,5.53,0,0,1,195.12,160.9Zm0-27.37a5.53,5.53,0,1,1,5.53-5.53A5.53,5.53,0,0,1,195.12,133.53Zm0-27.37a5.54,5.54,0,1,1,5.53-5.53A5.53,5.53,0,0,1,195.12,106.16Z" transform="translate(-3.05 -3.05)"/></svg>
